<svg fill="none" height="175" viewBox="0 0 175 175" width="175" xmlns="http://www.w3.org/2000/svg"><path d="m123.078 42.6294c34.776.4325-13.423 45.7358-3.687 79.5746 9.735 33.839-18.805 22.223-34.7044 12.517s-54.3115 7.321-47.4877-22.487c6.8237-29.8085-30.78343-71.8137 21.7687-64.5808 52.5524 7.2328 29.334-5.4564 64.1104-5.0238z" fill="#fee3e5"/><g fill="#fe7387"><path d="m121.998 66.0724c-.079-6.7057-3.51-10.3989-9.662-10.3989-2.381 0-4.676.5543-6.176 1.0168.15-2.7409.152-4.4328.152-4.5169v-1.1734h-47.6225v1.1732c0 .0402.004 1.7588.1551 4.5185-1.4998-.4628-3.7964-1.0182-6.1798-1.0182-6.1518 0-9.5833 3.6931-9.662 10.3989-.0774 6.5969 1.427 12.4692 4.4711 17.4539 2.9888 4.8941 6.8089 7.8432 9.4873 9.455 4.2899 2.5819 8.5774 3.1239 11.4189 3.1239.7006 0 1.3755-.033 2.0067-.0981.0418-.0044.0805-.0093.1214-.0138 1.3739 1.4797 2.855 2.665 4.4376 3.5458 1.1667.6489 1.9781 1.7819 2.2562 3.0829-1.5731.489-2.7185 1.959-2.7185 3.691 0 1.772 1.1979 3.267 2.8252 3.723v4.924h-6.3481v5.138h-6.2645v9.902h35.6089v-9.902h-6.2644v-5.138h-6.3481v-4.924c1.6275-.456 2.8253-1.951 2.8253-3.723 0-1.732-1.1453-3.202-2.7184-3.691.278-1.301 1.0893-2.434 2.2561-3.0829 1.5788-.8785 3.0701-2.0702 4.4406-3.5452.4855.0539 1.2137.1111 2.124.1111h.0006c2.8413 0 7.1283-.5422 11.4183-3.1239 2.678-1.6119 6.498-4.5609 9.487-9.4549 3.045-4.9846 4.549-10.857 4.472-17.4538zm-18.052-12.7259c-.01.4291-.027.9686-.052 1.6001h-42.7814c-.0266-.6313-.0443-1.1716-.0557-1.6001zm1.596 10.7731c1.59-.5292 3.65-1.0628 5.495-1.0628 1.548 0 2.662.3781 3.312 1.1237.747.8571.988 2.2968.716 4.2798-1.135 8.2597-4.716 14.7073-10.084 18.1545-1.87 1.2008-3.884 1.697-5.5719 1.8732 3.5699-7.5044 5.2979-16.92 6.1329-24.3684zm-44.8756 8.1729c1.1539 6.1903 2.7472 11.506 4.7358 15.7995.0616.1333.1242.2647.1866.396-1.6871-.1767-3.6998-.6727-5.569-1.8729-5.3681-3.4474-8.9494-9.8948-10.0839-18.1545-.2723-1.9831-.0316-3.423.7156-4.2798.6501-.7456 1.7644-1.1235 3.3117-1.1235 1.8471 0 3.9091.5344 5.4993 1.0638.2841 2.5403.6725 5.3209 1.2039 8.1714zm7.7137 21.4662c-2.544 0-6.3806-.4838-10.2089-2.7878-3.9153-2.3564-13.0026-9.4971-12.8221-24.8709.0639-5.4369 2.4569-8.0798 7.3157-8.0798 2.5985 0 5.165.7834 6.3381 1.1967.0585.7871.124 1.5766.1965 2.3628-1.5946-.4685-3.4735-.8694-5.2362-.8694-2.2555 0-3.9647.6486-5.0802 1.9279-1.2127 1.3908-1.6405 3.457-1.2718 6.1413.6317 4.5987 1.9519 8.6633 3.924 12.0808 1.8826 3.2625 4.3107 5.8629 7.2168 7.7289 2.8384 1.8229 5.9085 2.2826 8.0984 2.3266.0075.0129.015.0253.0224.0381.1201.2103.2413.4171.3638.6213.0382.0637.0766.127.115.1901.1168.1919.2345.3821.3535.5683.0447.0701.0901.1384.1352.2079.081.1245.1624.248.2445.37.0793.1181.1589.2349.239.3505.0786.1131.1573.2256.2366.3365.0372.0522.0737.1063.1109.1579-.0944.0015-.1915.0023-.2912.0023zm29.5789 28.6863v5.209h-30.9163v-5.209h3.9181 23.0799zm-10.2662-5.139h4.0015v2.793h-18.3871v-2.793h4.0017zm-8.0377-2.346v-4.781h5.6913v4.781zm8.5166-8.647c0 .838-.6813 1.519-1.5186 1.519h-8.3046c-.8373 0-1.5186-.681-1.5186-1.519 0-.837.6813-1.518 1.5186-1.518h8.3046c.8374 0 1.5186.681 1.5186 1.518zm5.8686-13.4131c-.013.0169-.0259.0337-.0389.0505-.1154.1494-.2318.2951-.3487.4387-.0287.035-.057.0707-.0858.1056-.1285.1561-.2581.3089-.3884.458-.0063.0071-.0122.0145-.0185.0216-1.3083 1.4927-2.7365 2.6748-4.245 3.5143-1.8595 1.0345-3.1238 2.8724-3.4716 4.9594h-5.8852c-.3479-2.088-1.6122-3.9249-3.4717-4.9594-1.4559-.81-2.7708-1.8928-3.9588-3.1867l-.287-.3275c-1.1665-1.3305-2.266-2.9424-3.2678-4.7906l-.3069-.5665c-5.0451-9.7491-6.5711-23.8396-7.0312-31.3242h42.5402c-.019.3256-.041.6618-.064 1.011-.002.0162-.003.0329-.004.0491-.026.3784-.054.7578-.083 1.1376-.001.0111-.002.0222-.002.0335-.094 1.2036-.205 2.4117-.332 3.6055l-.077.7219c-.852 7.6428-2.653 17.3795-6.4495 24.7137l-.3353.6182c-.746 1.3759-1.5462 2.6206-2.3879 3.7163zm12.7887-1.929c-3.828 2.3042-7.664 2.7878-10.2079 2.7878-.0002 0-.0005 0-.0007 0-.0998 0-.1968-.0008-.2914-.0023.0015-.0022.0031-.0045.0046-.0066.1523-.2102.3023-.4235.4499-.6397.0181-.0264.0358-.0534.0539-.0798.1248-.1839.2478-.3703.3694-.5586.0313-.0483.0626-.0967.0936-.1453.1346-.2113.2677-.4239.3983-.6403.0205-.0338.0404-.0685.0608-.1026.1069-.1787.2126-.3591.3169-.5412.0244-.0426.0495-.0833.074-.1262 2.1896-.044 5.2596-.5037 8.0986-2.3266 2.906-1.8663 5.334-4.4667 7.217-7.7289 1.972-3.4175 3.292-7.4821 3.924-12.0808.368-2.6844-.06-4.7507-1.272-6.1413-1.115-1.2794-2.825-1.928-5.08-1.928-1.763 0-3.642.4006-5.237.8692.074-.8016.138-1.5706.192-2.3014.002-.0204.003-.0409.005-.0611 1.173-.4134 3.74-1.1967 6.338-1.1967 4.859 0 7.252 2.6429 7.316 8.0795.18 15.3738-8.907 22.5144-12.823 24.8709z"/><path d="m72.6801 88.9933-1.9596 1.2911c.6691 1.0159 1.3881 1.9388 2.1372 2.7431l1.717-1.5996c-.6599-.7085-1.2973-1.5277-1.8946-2.4346z"/><path d="m67.6438 75.9824-2.2876.5219c1.1251 4.9326 2.6272 9.0735 4.4643 12.3074l2.0401-1.1592c-1.7238-3.0345-3.1426-6.9609-4.2168-11.6701z"/><path d="m111.457 102.46-.002-2.346-1.981.001-.001-1.9808-2.347.0015.002 1.9813-1.981.001.002 2.347 1.98-.002.002 1.981 2.346-.001-.001-1.981z"/><path d="m60.4025 114.646-.0025-2.347-1.6621.002-.0017-1.662-2.3464.002.0017 1.662-1.6624.002.0026 2.347 1.6621-.002.0017 1.663 2.3464-.003-.0017-1.662z"/><path d="m52.7501 95.4628h-2.2134v2.3466h2.2134z"/><path d="m66.9754 102.406h-2.2134v2.346h2.2134z"/><path d="m102.651 109.466h-2.213v2.346h2.213z"/></g></svg>