<svg fill="none" height="175" viewBox="0 0 175 175" width="175" xmlns="http://www.w3.org/2000/svg" xmlns:xlink="http://www.w3.org/1999/xlink"><clipPath id="a"><path d="m41 51h82v82h-82z"/></clipPath><path d="m123.078 42.6294c34.776.4325-13.423 45.7358-3.687 79.5746 9.735 33.839-18.805 22.223-34.7044 12.517s-54.3115 7.321-47.4877-22.487c6.8237-29.8085-30.78343-71.8137 21.7687-64.5808 52.5524 7.2328 29.334-5.4564 64.1104-5.0238z" fill="#cbf1ff"/><g clip-path="url(#a)" fill="#53c5ff"><path d="m121.189 128.335-.105-.027-2.16-8.663c-.165-.663-.604-1.225-1.207-1.545-.729-.387-14.246-7.445-26.7437-6.11 9.5607-4.99 23.6847-2.284 23.8677-2.248 1.301.26 2.566-.585 2.827-1.89.26-1.305-.584-2.574-1.885-2.835-.275-.055-6.83-1.346-14.452-.68-8.7198.76-15.3159 3.801-19.331 8.863-4.015-5.062-10.6111-8.103-19.3306-8.863-7.6227-.665-14.1771.625-14.4524.68-1.3003.261-2.1431 1.529-1.8841 2.833s1.5234 2.151 2.8245 1.892c.1837-.036 14.3082-2.742 23.8694 2.248-12.4978-1.335-26.0148 5.723-26.744 6.11-.6025.32-1.0412.882-1.2065 1.545l-2.1601 8.663-.1051.027c-1.2859.328-2.0633 1.639-1.7365 2.929.3267 1.289 1.6334 2.069 2.9201 1.741l26.8171-6.836c2.1584 4.113 6.4139 6.75 11.1881 6.75s9.0298-2.637 11.188-6.75l26.8171 6.836c.199.051.398.075.594.075 1.072 0 2.05-.726 2.326-1.816.327-1.29-.45-2.601-1.736-2.929zm-28.8196-7.347c-1.2358-.315-2.5003.392-2.8831 1.611-1.0337 3.29-4.042 5.501-7.4861 5.501s-6.4525-2.211-7.4861-5.501c-.3828-1.219-1.647-1.927-2.8831-1.611l-23.4261 5.972 1.2632-5.066c4.1504-1.985 21.0886-9.327 31.1544-2.261.8271.581 1.9281.581 2.7552 0 10.0428-7.05 27.0033.283 31.1553 2.263l1.262 5.064z"/><path d="m109.547 61.6013h2.082v2.0881c0 1.3307 1.075 2.4094 2.402 2.4094s2.402-1.0787 2.402-2.4094v-2.0881h2.082c1.327 0 2.403-1.0788 2.403-2.4094s-1.076-2.4094-2.403-2.4094h-2.082v-2.0881c0-1.3306-1.075-2.4094-2.402-2.4094s-2.402 1.0788-2.402 2.4094v2.0881h-2.082c-1.327 0-2.403 1.0788-2.403 2.4094s1.076 2.4094 2.403 2.4094z"/><path d="m109.263 87.1654-15.3746 6.425c-1.2245.5118-1.8038 1.9224-1.2934 3.1507.3844.9253 1.2776 1.4832 2.2185 1.4832.308 0 .621-.0598.9231-.186l15.3744-6.425c1.225-.5118 1.804-1.9224 1.294-3.1507-.511-1.2281-1.917-1.8094-3.142-1.2972z"/><path d="m86.5686 95.5883c.1872.0447.3743.0662.5584.0662 1.0869 0 2.0721-.7451 2.3349-1.8518l6.4062-26.9851c.3073-1.2946-.4899-2.5936-1.7804-2.9018-1.2915-.3081-2.586.4913-2.8934 1.7856l-6.4061 26.9851c-.3074 1.2945.4897 2.5936 1.7804 2.9018z"/><path d="m74.497 93.5851c.1712 1.2018 1.1989 2.069 2.3753 2.069.113 0 .2275-.0081.3427-.0244 1.3134-.1883 2.226-1.4087 2.0386-2.726l-2.5625-17.99c-.1877-1.3173-1.4061-2.2331-2.718-2.0446-1.3134.1882-2.2259 1.4086-2.0386 2.7259z"/><path d="m49.5519 78.6907c-.9382.9408-.9382 2.4664 0 3.4073l15.3748 15.4201c.4691.4704 1.0839.7058 1.6986.7058.6146 0 1.2296-.2354 1.6986-.7058.9381-.9408.9381-2.4664 0-3.4074l-15.3748-15.42c-.9379-.9408-2.459-.9408-3.3972 0z"/><path d="m48.6884 66.0988c4.1506 0 7.5273-3.3866 7.5273-7.5494s-3.3767-7.5494-7.5273-7.5494c-4.1505 0-7.5272 3.3866-7.5272 7.5494s3.3767 7.5494 7.5272 7.5494zm0-10.28c1.5013 0 2.7226 1.2249 2.7226 2.7306s-1.2213 2.7306-2.7226 2.7306-2.7226-1.2249-2.7226-2.7306 1.2213-2.7306 2.7226-2.7306z"/><path d="m44.8444 96.939c1.3268 0 2.4023-1.0787 2.4023-2.4094 0-1.3306-1.0755-2.4094-2.4023-2.4094-1.3267 0-2.4023 1.0788-2.4023 2.4094 0 1.3307 1.0756 2.4094 2.4023 2.4094z"/><path d="m103.781 77.6635c1.327 0 2.402-1.0787 2.402-2.4094s-1.075-2.4094-2.402-2.4094-2.402 1.0787-2.402 2.4094 1.075 2.4094 2.402 2.4094z"/><path d="m82.0002 63.5287c1.3267 0 2.4023-1.0787 2.4023-2.4094 0-1.3306-1.0756-2.4093-2.4023-2.4093-1.3268 0-2.4024 1.0787-2.4024 2.4093 0 1.3307 1.0756 2.4094 2.4024 2.4094z"/></g></svg>